<mxfile host="app.diagrams.net" agent="Mozilla/5.0 (Windows NT 10.0; Win64; x64) AppleWebKit/537.36 (KHTML, like Gecko) Chrome/138.0.0.0 Safari/537.36" version="28.0.3">
  <diagram name="Page-1" id="nJi5U66aZ7GT4SIX_TR3">
    <mxGraphModel dx="2066" dy="1047" grid="1" gridSize="20" guides="1" tooltips="1" connect="1" arrows="1" fold="1" page="1" pageScale="1" pageWidth="25000" pageHeight="10000" math="0" shadow="0">
      <root>
        <mxCell id="0" />
        <mxCell id="1" parent="0" />
        <mxCell id="ptdtlOR35usIGfbwmJ5l-7" value="&lt;div style=&quot;background-color:#ffffff;color:#000000&quot;&gt;&lt;pre style=&quot;font-family:&#39;Monaco&#39;,monospace;font-size:9.0pt;&quot;&gt;&lt;span style=&quot;color:#3900a0;&quot;&gt;List&lt;/span&gt;&lt;span style=&quot;color:#3f9101;&quot;&gt;&amp;lt;&lt;/span&gt;&lt;span style=&quot;color:#0b4f79;&quot;&gt;Object&lt;/span&gt;&lt;span style=&quot;color:#3f9101;&quot;&gt;&amp;gt; &lt;/span&gt;&lt;span style=&quot;color:#6c36a9;&quot;&gt;values&lt;/span&gt;,&lt;br&gt;&lt;span style=&quot;color:#0b4f79;&quot;&gt;String &lt;/span&gt;&lt;span style=&quot;color:#6c36a9;&quot;&gt;seed&lt;/span&gt;,&lt;br&gt;&lt;span style=&quot;color:#0b4f79;&quot;&gt;JobColumn &lt;/span&gt;&lt;span style=&quot;color:#6c36a9;&quot;&gt;column&lt;/span&gt;&lt;/pre&gt;&lt;/div&gt;" style="edgeStyle=orthogonalEdgeStyle;shape=connector;rounded=0;orthogonalLoop=1;jettySize=auto;html=1;strokeColor=#FF3333;align=center;verticalAlign=middle;fontFamily=Lucida Console;fontSize=24;fontColor=default;labelBorderColor=none;labelBackgroundColor=default;endArrow=classic;" parent="1" source="ptdtlOR35usIGfbwmJ5l-1" target="ptdtlOR35usIGfbwmJ5l-6" edge="1">
          <mxGeometry relative="1" as="geometry" />
        </mxCell>
        <mxCell id="ptdtlOR35usIGfbwmJ5l-1" value="&lt;pre style=&quot;font-family: Monaco, monospace; font-size: 9pt;&quot;&gt;&lt;font style=&quot;color: rgb(0, 0, 0);&quot;&gt;Controller&lt;/font&gt;&lt;/pre&gt;&lt;pre style=&quot;font-family: Monaco, monospace; font-size: 9pt;&quot;&gt;anonymize()&lt;/pre&gt;" style="rounded=0;whiteSpace=wrap;html=1;fontSize=24;fontFamily=Lucida Console;fillColor=#fff2cc;strokeColor=light-dark(#0dcea8, #6d5100);labelBorderColor=none;" parent="1" vertex="1">
          <mxGeometry x="420" y="1742.5" width="100" height="80" as="geometry" />
        </mxCell>
        <mxCell id="ptdtlOR35usIGfbwmJ5l-11" value="" style="edgeStyle=entityRelationEdgeStyle;shape=connector;rounded=0;orthogonalLoop=1;jettySize=auto;html=1;strokeColor=#FF3333;align=center;verticalAlign=middle;fontFamily=Lucida Console;fontSize=24;fontColor=default;labelBorderColor=none;labelBackgroundColor=default;endArrow=classic;" parent="1" source="ptdtlOR35usIGfbwmJ5l-6" target="ptdtlOR35usIGfbwmJ5l-10" edge="1">
          <mxGeometry relative="1" as="geometry" />
        </mxCell>
        <mxCell id="ptdtlOR35usIGfbwmJ5l-13" value="" style="edgeStyle=entityRelationEdgeStyle;shape=connector;rounded=0;orthogonalLoop=1;jettySize=auto;html=1;strokeColor=#FF3333;align=center;verticalAlign=middle;fontFamily=Lucida Console;fontSize=24;fontColor=default;labelBorderColor=none;labelBackgroundColor=default;endArrow=classic;" parent="1" source="ptdtlOR35usIGfbwmJ5l-6" target="ptdtlOR35usIGfbwmJ5l-12" edge="1">
          <mxGeometry relative="1" as="geometry" />
        </mxCell>
        <mxCell id="ptdtlOR35usIGfbwmJ5l-15" value="" style="edgeStyle=entityRelationEdgeStyle;shape=connector;rounded=0;orthogonalLoop=1;jettySize=auto;html=1;strokeColor=#FF3333;align=center;verticalAlign=middle;fontFamily=Lucida Console;fontSize=24;fontColor=default;labelBorderColor=none;labelBackgroundColor=default;endArrow=classic;" parent="1" source="ptdtlOR35usIGfbwmJ5l-6" target="ptdtlOR35usIGfbwmJ5l-14" edge="1">
          <mxGeometry relative="1" as="geometry" />
        </mxCell>
        <mxCell id="ptdtlOR35usIGfbwmJ5l-17" value="" style="edgeStyle=entityRelationEdgeStyle;shape=connector;rounded=0;orthogonalLoop=1;jettySize=auto;html=1;strokeColor=#FF3333;align=center;verticalAlign=middle;fontFamily=Lucida Console;fontSize=24;fontColor=default;labelBorderColor=none;labelBackgroundColor=default;endArrow=classic;" parent="1" source="ptdtlOR35usIGfbwmJ5l-6" target="ptdtlOR35usIGfbwmJ5l-16" edge="1">
          <mxGeometry relative="1" as="geometry" />
        </mxCell>
        <mxCell id="ptdtlOR35usIGfbwmJ5l-19" value="" style="edgeStyle=entityRelationEdgeStyle;shape=connector;rounded=0;orthogonalLoop=1;jettySize=auto;html=1;strokeColor=#FF3333;align=center;verticalAlign=middle;fontFamily=Lucida Console;fontSize=24;fontColor=default;labelBorderColor=none;labelBackgroundColor=default;endArrow=classic;" parent="1" source="ptdtlOR35usIGfbwmJ5l-6" target="ptdtlOR35usIGfbwmJ5l-18" edge="1">
          <mxGeometry relative="1" as="geometry" />
        </mxCell>
        <mxCell id="ptdtlOR35usIGfbwmJ5l-21" value="" style="edgeStyle=entityRelationEdgeStyle;shape=connector;rounded=0;orthogonalLoop=1;jettySize=auto;html=1;strokeColor=#FF3333;align=center;verticalAlign=middle;fontFamily=Lucida Console;fontSize=24;fontColor=default;labelBorderColor=none;labelBackgroundColor=default;endArrow=classic;" parent="1" source="ptdtlOR35usIGfbwmJ5l-6" target="ptdtlOR35usIGfbwmJ5l-20" edge="1">
          <mxGeometry relative="1" as="geometry" />
        </mxCell>
        <mxCell id="ptdtlOR35usIGfbwmJ5l-23" value="" style="edgeStyle=entityRelationEdgeStyle;shape=connector;rounded=0;orthogonalLoop=1;jettySize=auto;html=1;strokeColor=#FF3333;align=center;verticalAlign=middle;fontFamily=Lucida Console;fontSize=24;fontColor=default;labelBorderColor=none;labelBackgroundColor=default;endArrow=classic;" parent="1" source="ptdtlOR35usIGfbwmJ5l-6" target="ptdtlOR35usIGfbwmJ5l-22" edge="1">
          <mxGeometry relative="1" as="geometry" />
        </mxCell>
        <mxCell id="ptdtlOR35usIGfbwmJ5l-25" value="" style="edgeStyle=entityRelationEdgeStyle;shape=connector;rounded=0;orthogonalLoop=1;jettySize=auto;html=1;strokeColor=#FF3333;align=center;verticalAlign=middle;fontFamily=Lucida Console;fontSize=24;fontColor=default;labelBorderColor=none;labelBackgroundColor=default;endArrow=classic;" parent="1" source="ptdtlOR35usIGfbwmJ5l-6" target="ptdtlOR35usIGfbwmJ5l-24" edge="1">
          <mxGeometry relative="1" as="geometry" />
        </mxCell>
        <mxCell id="ptdtlOR35usIGfbwmJ5l-27" value="" style="edgeStyle=entityRelationEdgeStyle;shape=connector;rounded=0;orthogonalLoop=1;jettySize=auto;html=1;strokeColor=#FF3333;align=center;verticalAlign=middle;fontFamily=Lucida Console;fontSize=24;fontColor=default;labelBorderColor=none;labelBackgroundColor=default;endArrow=classic;" parent="1" source="ptdtlOR35usIGfbwmJ5l-6" target="ptdtlOR35usIGfbwmJ5l-26" edge="1">
          <mxGeometry relative="1" as="geometry" />
        </mxCell>
        <mxCell id="ptdtlOR35usIGfbwmJ5l-6" value="&lt;div&gt;&lt;pre style=&quot;font-family: Monaco, monospace; font-size: 9pt;&quot;&gt;&lt;span style=&quot;color: rgb(50, 109, 116);&quot;&gt;&lt;div style=&quot;color: rgb(0, 0, 0);&quot;&gt;&lt;pre style=&quot;font-family: Monaco, monospace; font-size: 9pt;&quot;&gt;&lt;span style=&quot;color: rgb(11, 79, 121);&quot;&gt;AnonymizationServiceFactory&lt;/span&gt;&lt;/pre&gt;&lt;/div&gt;&lt;/span&gt;&lt;/pre&gt;&lt;pre style=&quot;font-family: Monaco, monospace; font-size: 9pt;&quot;&gt;&lt;span style=&quot;color: rgb(50, 109, 116);&quot;&gt;getAnonymizationService()&lt;/span&gt;&lt;/pre&gt;&lt;/div&gt;" style="rounded=0;whiteSpace=wrap;html=1;fontSize=24;fontFamily=Lucida Console;fillColor=#fff2cc;strokeColor=light-dark(#0dcea8, #6d5100);labelBorderColor=none;" parent="1" vertex="1">
          <mxGeometry x="770" y="1742.5" width="220" height="80" as="geometry" />
        </mxCell>
        <mxCell id="ptdtlOR35usIGfbwmJ5l-10" value="&lt;div&gt;&lt;pre style=&quot;font-family: Monaco, monospace; font-size: 9pt;&quot;&gt;&lt;span style=&quot;color: rgb(108, 54, 169);&quot;&gt;NAME&lt;/span&gt;&lt;/pre&gt;&lt;/div&gt;" style="whiteSpace=wrap;html=1;fontSize=24;fontFamily=Lucida Console;fillColor=#fff2cc;strokeColor=light-dark(#0dcea8, #6d5100);rounded=0;labelBorderColor=none;" parent="1" vertex="1">
          <mxGeometry x="1340" y="1450" width="120" height="60" as="geometry" />
        </mxCell>
        <mxCell id="ptdtlOR35usIGfbwmJ5l-12" value="&lt;div style=&quot;&quot;&gt;&lt;pre style=&quot;font-family: Monaco, monospace; font-size: 9pt;&quot;&gt;&lt;span style=&quot;color: rgb(108, 54, 169);&quot;&gt;EMAIL&lt;/span&gt;&lt;/pre&gt;&lt;/div&gt;" style="whiteSpace=wrap;html=1;fontSize=24;fontFamily=Lucida Console;fillColor=#fff2cc;strokeColor=light-dark(#0dcea8, #6d5100);rounded=0;labelBorderColor=none;" parent="1" vertex="1">
          <mxGeometry x="1340" y="1520" width="120" height="60" as="geometry" />
        </mxCell>
        <mxCell id="ptdtlOR35usIGfbwmJ5l-14" value="&lt;div style=&quot;&quot;&gt;&lt;pre style=&quot;font-family: Monaco, monospace; font-size: 9pt;&quot;&gt;&lt;span style=&quot;color: rgb(108, 54, 169);&quot;&gt;DATE&lt;/span&gt;&lt;/pre&gt;&lt;/div&gt;" style="whiteSpace=wrap;html=1;fontSize=24;fontFamily=Lucida Console;fillColor=#fff2cc;strokeColor=light-dark(#0dcea8, #6d5100);rounded=0;labelBorderColor=none;" parent="1" vertex="1">
          <mxGeometry x="1340" y="1592.5" width="120" height="60" as="geometry" />
        </mxCell>
        <mxCell id="ptdtlOR35usIGfbwmJ5l-16" value="&lt;div style=&quot;&quot;&gt;&lt;pre style=&quot;font-family: Monaco, monospace; font-size: 9pt;&quot;&gt;&lt;span style=&quot;color: rgb(108, 54, 169);&quot;&gt;PHONE&lt;/span&gt;&lt;/pre&gt;&lt;/div&gt;" style="whiteSpace=wrap;html=1;fontSize=24;fontFamily=Lucida Console;fillColor=#fff2cc;strokeColor=light-dark(#0dcea8, #6d5100);rounded=0;labelBorderColor=none;" parent="1" vertex="1">
          <mxGeometry x="1340" y="1672.5" width="120" height="60" as="geometry" />
        </mxCell>
        <mxCell id="ptdtlOR35usIGfbwmJ5l-18" value="&lt;div style=&quot;&quot;&gt;&lt;pre style=&quot;font-family: Monaco, monospace; font-size: 9pt;&quot;&gt;&lt;span style=&quot;color: rgb(108, 54, 169);&quot;&gt;NUMBER&lt;/span&gt;&lt;/pre&gt;&lt;/div&gt;" style="whiteSpace=wrap;html=1;fontSize=24;fontFamily=Lucida Console;fillColor=#fff2cc;strokeColor=light-dark(#0dcea8, #6d5100);rounded=0;labelBorderColor=none;" parent="1" vertex="1">
          <mxGeometry x="1340" y="1750" width="120" height="60" as="geometry" />
        </mxCell>
        <mxCell id="ptdtlOR35usIGfbwmJ5l-20" value="&lt;div style=&quot;&quot;&gt;&lt;pre style=&quot;font-family: Monaco, monospace; font-size: 9pt;&quot;&gt;&lt;span style=&quot;color: rgb(108, 54, 169);&quot;&gt;FIXED_VALUE&lt;/span&gt;&lt;/pre&gt;&lt;/div&gt;" style="whiteSpace=wrap;html=1;fontSize=24;fontFamily=Lucida Console;fillColor=#fff2cc;strokeColor=light-dark(#0dcea8, #6d5100);rounded=0;labelBorderColor=none;" parent="1" vertex="1">
          <mxGeometry x="1340" y="1830" width="120" height="60" as="geometry" />
        </mxCell>
        <mxCell id="ptdtlOR35usIGfbwmJ5l-22" value="&lt;div style=&quot;&quot;&gt;&lt;pre style=&quot;font-family: Monaco, monospace; font-size: 9pt;&quot;&gt;&lt;span style=&quot;color: rgb(108, 54, 169);&quot;&gt;CONSISTENT_ID&lt;/span&gt;&lt;/pre&gt;&lt;/div&gt;" style="whiteSpace=wrap;html=1;fontSize=24;fontFamily=Lucida Console;fillColor=#fff2cc;strokeColor=light-dark(#0dcea8, #6d5100);rounded=0;labelBorderColor=none;" parent="1" vertex="1">
          <mxGeometry x="1340" y="1910" width="120" height="60" as="geometry" />
        </mxCell>
        <mxCell id="ptdtlOR35usIGfbwmJ5l-24" value="&lt;div style=&quot;&quot;&gt;&lt;pre style=&quot;font-family: Monaco, monospace; font-size: 9pt;&quot;&gt;&lt;span style=&quot;color: rgb(108, 54, 169);&quot;&gt;CLEAR&lt;/span&gt;&lt;/pre&gt;&lt;/div&gt;" style="whiteSpace=wrap;html=1;fontSize=24;fontFamily=Lucida Console;fillColor=#fff2cc;strokeColor=light-dark(#0dcea8, #6d5100);rounded=0;labelBorderColor=none;" parent="1" vertex="1">
          <mxGeometry x="1340" y="1990" width="120" height="60" as="geometry" />
        </mxCell>
        <mxCell id="ptdtlOR35usIGfbwmJ5l-26" value="&lt;div style=&quot;&quot;&gt;&lt;pre style=&quot;font-family: Monaco, monospace; font-size: 9pt;&quot;&gt;&lt;span style=&quot;color: rgb(108, 54, 169);&quot;&gt;ADDRESS&lt;/span&gt;&lt;/pre&gt;&lt;/div&gt;" style="whiteSpace=wrap;html=1;fontSize=24;fontFamily=Lucida Console;fillColor=#fff2cc;strokeColor=light-dark(#0dcea8, #6d5100);rounded=0;labelBorderColor=none;" parent="1" vertex="1">
          <mxGeometry x="1340" y="2070" width="120" height="60" as="geometry" />
        </mxCell>
        <mxCell id="ptdtlOR35usIGfbwmJ5l-37" value="" style="edgeStyle=entityRelationEdgeStyle;shape=connector;rounded=0;orthogonalLoop=1;jettySize=auto;html=1;strokeColor=#FF3333;align=center;verticalAlign=middle;fontFamily=Lucida Console;fontSize=24;fontColor=default;labelBorderColor=none;labelBackgroundColor=default;endArrow=classic;" parent="1" source="ptdtlOR35usIGfbwmJ5l-28" target="ptdtlOR35usIGfbwmJ5l-36" edge="1">
          <mxGeometry relative="1" as="geometry" />
        </mxCell>
        <mxCell id="ptdtlOR35usIGfbwmJ5l-28" value="&lt;div style=&quot;&quot;&gt;&lt;pre style=&quot;font-family: Monaco, monospace; font-size: 9pt;&quot;&gt;&lt;div&gt;&lt;pre style=&quot;font-family: Monaco, monospace; font-size: 9pt;&quot;&gt;&lt;span style=&quot;color: rgb(108, 54, 169);&quot;&gt;STREET&lt;/span&gt;&lt;/pre&gt;&lt;/div&gt;&lt;/pre&gt;&lt;/div&gt;" style="whiteSpace=wrap;html=1;fontSize=24;fontFamily=Lucida Console;fillColor=#fff2cc;strokeColor=light-dark(#0dcea8, #6d5100);rounded=0;labelBorderColor=none;" parent="1" vertex="1">
          <mxGeometry x="1770" y="1880" width="120" height="60" as="geometry" />
        </mxCell>
        <mxCell id="ptdtlOR35usIGfbwmJ5l-39" value="" style="edgeStyle=entityRelationEdgeStyle;shape=connector;rounded=0;orthogonalLoop=1;jettySize=auto;html=1;strokeColor=#FF3333;align=center;verticalAlign=middle;fontFamily=Lucida Console;fontSize=24;fontColor=default;labelBorderColor=none;labelBackgroundColor=default;endArrow=classic;" parent="1" source="ptdtlOR35usIGfbwmJ5l-29" target="ptdtlOR35usIGfbwmJ5l-38" edge="1">
          <mxGeometry relative="1" as="geometry" />
        </mxCell>
        <mxCell id="ptdtlOR35usIGfbwmJ5l-29" value="&lt;div style=&quot;&quot;&gt;&lt;pre style=&quot;font-family: Monaco, monospace; font-size: 9pt;&quot;&gt;&lt;div style=&quot;&quot;&gt;&lt;pre style=&quot;font-family: Monaco, monospace; font-size: 9pt;&quot;&gt;&lt;span style=&quot;color: rgb(108, 54, 169);&quot;&gt;CITY&lt;/span&gt;&lt;/pre&gt;&lt;/div&gt;&lt;/pre&gt;&lt;/div&gt;" style="whiteSpace=wrap;html=1;fontSize=24;fontFamily=Lucida Console;fillColor=#fff2cc;strokeColor=light-dark(#0dcea8, #6d5100);rounded=0;labelBorderColor=none;" parent="1" vertex="1">
          <mxGeometry x="1770" y="2010" width="120" height="60" as="geometry" />
        </mxCell>
        <mxCell id="ptdtlOR35usIGfbwmJ5l-41" value="&lt;div style=&quot;background-color:#ffffff;color:#000000&quot;&gt;&lt;pre style=&quot;font-family:&#39;Monaco&#39;,monospace;font-size:9.0pt;&quot;&gt;&lt;span style=&quot;color:#3900a0;&quot;&gt;List &lt;/span&gt;values&lt;br&gt;&lt;span style=&quot;color:#0b4f79;&quot;&gt;String &lt;/span&gt;seed&lt;br&gt;&lt;span style=&quot;color:#0b4f79;&quot;&gt;JobColumn &lt;/span&gt;column&lt;br&gt;&lt;span style=&quot;color:#3900a0;&quot;&gt;PostCodeCacheService &lt;/span&gt;cacheService&lt;br&gt;&lt;span style=&quot;color:#3900a0;&quot;&gt;PostCodeAnonymizedDataRepository &lt;/span&gt;anonymizedDataRepository&lt;/pre&gt;&lt;/div&gt;" style="edgeStyle=entityRelationEdgeStyle;shape=connector;rounded=0;orthogonalLoop=1;jettySize=auto;html=1;strokeColor=#FF3333;align=center;verticalAlign=middle;fontFamily=Lucida Console;fontSize=24;fontColor=default;labelBorderColor=none;labelBackgroundColor=default;endArrow=classic;" parent="1" source="ptdtlOR35usIGfbwmJ5l-30" target="ptdtlOR35usIGfbwmJ5l-40" edge="1">
          <mxGeometry relative="1" as="geometry" />
        </mxCell>
        <mxCell id="ptdtlOR35usIGfbwmJ5l-30" value="&lt;div style=&quot;&quot;&gt;&lt;pre style=&quot;font-family: Monaco, monospace; font-size: 9pt;&quot;&gt;&lt;div style=&quot;&quot;&gt;&lt;pre style=&quot;font-family: Monaco, monospace; font-size: 9pt;&quot;&gt;&lt;span style=&quot;color: rgb(108, 54, 169);&quot;&gt;POSTCODE&lt;br/&gt;(prority)&lt;/span&gt;&lt;/pre&gt;&lt;/div&gt;&lt;/pre&gt;&lt;/div&gt;" style="whiteSpace=wrap;html=1;fontSize=24;fontFamily=Lucida Console;fillColor=#fff2cc;strokeColor=light-dark(#0dcea8, #6d5100);rounded=0;labelBorderColor=none;" parent="1" vertex="1">
          <mxGeometry x="1770" y="2160" width="120" height="60" as="geometry" />
        </mxCell>
        <mxCell id="ptdtlOR35usIGfbwmJ5l-43" value="&lt;div style=&quot;background-color:#ffffff;color:#000000&quot;&gt;&lt;pre style=&quot;font-family:&#39;Monaco&#39;,monospace;font-size:9.0pt;&quot;&gt;&lt;span style=&quot;color:#3900a0;&quot;&gt;List&lt;/span&gt;&lt;span style=&quot;color:#3f9101;&quot;&gt;&amp;lt;&lt;/span&gt;&lt;span style=&quot;color:#0b4f79;&quot;&gt;Object&lt;/span&gt;&lt;span style=&quot;color:#3f9101;&quot;&gt;&amp;gt; &lt;/span&gt;&lt;span style=&quot;color:#6c36a9;&quot;&gt;values&lt;/span&gt;,&lt;br&gt;&lt;span style=&quot;color:#0b4f79;&quot;&gt;String &lt;/span&gt;&lt;span style=&quot;color:#6c36a9;&quot;&gt;seed&lt;/span&gt;,&lt;br&gt;&lt;span style=&quot;color:#0b4f79;&quot;&gt;JobColumn &lt;/span&gt;&lt;span style=&quot;color:#6c36a9;&quot;&gt;column&lt;/span&gt;,&lt;br&gt;&lt;span style=&quot;color:#3900a0;&quot;&gt;HouseNumberCacheService &lt;/span&gt;&lt;span style=&quot;color:#6c36a9;&quot;&gt;cacheService&lt;/span&gt;,&lt;br&gt;&lt;span style=&quot;color:#3900a0;&quot;&gt;HouseNumberAnonymizedDataRepository &lt;/span&gt;&lt;span style=&quot;color:#6c36a9;&quot;&gt;anonymizedDataRepository&lt;/span&gt;&lt;/pre&gt;&lt;/div&gt;" style="edgeStyle=entityRelationEdgeStyle;shape=connector;rounded=0;orthogonalLoop=1;jettySize=auto;html=1;strokeColor=#FF3333;align=center;verticalAlign=middle;fontFamily=Lucida Console;fontSize=24;fontColor=default;labelBorderColor=none;labelBackgroundColor=default;endArrow=classic;" parent="1" source="ptdtlOR35usIGfbwmJ5l-31" target="ptdtlOR35usIGfbwmJ5l-42" edge="1">
          <mxGeometry relative="1" as="geometry" />
        </mxCell>
        <mxCell id="ptdtlOR35usIGfbwmJ5l-31" value="&lt;div style=&quot;&quot;&gt;&lt;pre style=&quot;font-family: Monaco, monospace; font-size: 9pt;&quot;&gt;&lt;div style=&quot;&quot;&gt;&lt;pre style=&quot;font-family: Monaco, monospace; font-size: 9pt;&quot;&gt;&lt;span style=&quot;color: rgb(108, 54, 169);&quot;&gt;HOUSE_NUMBER&lt;/span&gt;&lt;/pre&gt;&lt;/div&gt;&lt;/pre&gt;&lt;/div&gt;" style="whiteSpace=wrap;html=1;fontSize=24;fontFamily=Lucida Console;fillColor=#fff2cc;strokeColor=light-dark(#0dcea8, #6d5100);rounded=0;labelBorderColor=none;" parent="1" vertex="1">
          <mxGeometry x="1770" y="2340" width="120" height="60" as="geometry" />
        </mxCell>
        <mxCell id="ptdtlOR35usIGfbwmJ5l-32" value="" style="endArrow=classic;html=1;rounded=0;strokeColor=#FF3333;align=center;verticalAlign=middle;fontFamily=Lucida Console;fontSize=24;fontColor=default;labelBorderColor=none;labelBackgroundColor=default;edgeStyle=entityRelationEdgeStyle;exitX=1;exitY=0.5;exitDx=0;exitDy=0;entryX=0;entryY=0.5;entryDx=0;entryDy=0;" parent="1" source="ptdtlOR35usIGfbwmJ5l-26" target="ptdtlOR35usIGfbwmJ5l-28" edge="1">
          <mxGeometry width="50" height="50" relative="1" as="geometry">
            <mxPoint x="1640" y="2000" as="sourcePoint" />
            <mxPoint x="1690" y="1950" as="targetPoint" />
          </mxGeometry>
        </mxCell>
        <mxCell id="ptdtlOR35usIGfbwmJ5l-33" value="" style="endArrow=classic;html=1;rounded=0;strokeColor=#FF3333;align=center;verticalAlign=middle;fontFamily=Lucida Console;fontSize=24;fontColor=default;labelBorderColor=none;labelBackgroundColor=default;edgeStyle=entityRelationEdgeStyle;exitX=1;exitY=0.5;exitDx=0;exitDy=0;entryX=0;entryY=0.5;entryDx=0;entryDy=0;" parent="1" source="ptdtlOR35usIGfbwmJ5l-26" target="ptdtlOR35usIGfbwmJ5l-29" edge="1">
          <mxGeometry width="50" height="50" relative="1" as="geometry">
            <mxPoint x="1580" y="2360" as="sourcePoint" />
            <mxPoint x="1900" y="2110" as="targetPoint" />
          </mxGeometry>
        </mxCell>
        <mxCell id="ptdtlOR35usIGfbwmJ5l-34" value="" style="endArrow=classic;html=1;rounded=0;strokeColor=#FF3333;align=center;verticalAlign=middle;fontFamily=Lucida Console;fontSize=24;fontColor=default;labelBorderColor=none;labelBackgroundColor=default;edgeStyle=entityRelationEdgeStyle;exitX=1;exitY=0.5;exitDx=0;exitDy=0;entryX=0;entryY=0.5;entryDx=0;entryDy=0;" parent="1" source="ptdtlOR35usIGfbwmJ5l-26" target="ptdtlOR35usIGfbwmJ5l-30" edge="1">
          <mxGeometry width="50" height="50" relative="1" as="geometry">
            <mxPoint x="1730" y="2200" as="sourcePoint" />
            <mxPoint x="2050" y="2030" as="targetPoint" />
          </mxGeometry>
        </mxCell>
        <mxCell id="ptdtlOR35usIGfbwmJ5l-35" value="" style="endArrow=classic;html=1;rounded=0;strokeColor=#FF3333;align=center;verticalAlign=middle;fontFamily=Lucida Console;fontSize=24;fontColor=default;labelBorderColor=none;labelBackgroundColor=default;edgeStyle=entityRelationEdgeStyle;exitX=1;exitY=0.5;exitDx=0;exitDy=0;entryX=0;entryY=0.5;entryDx=0;entryDy=0;" parent="1" source="ptdtlOR35usIGfbwmJ5l-26" target="ptdtlOR35usIGfbwmJ5l-31" edge="1">
          <mxGeometry width="50" height="50" relative="1" as="geometry">
            <mxPoint x="1640" y="2200" as="sourcePoint" />
            <mxPoint x="1960" y="2110" as="targetPoint" />
          </mxGeometry>
        </mxCell>
        <mxCell id="ptdtlOR35usIGfbwmJ5l-36" value="&lt;div style=&quot;&quot;&gt;&lt;pre style=&quot;font-family: Monaco, monospace; font-size: 9pt;&quot;&gt;&lt;span style=&quot;color: rgb(57, 0, 160);&quot;&gt;StreetAnonymizationService&lt;/span&gt;&lt;/pre&gt;&lt;/div&gt;" style="whiteSpace=wrap;html=1;fontSize=24;fontFamily=Lucida Console;fillColor=#fff2cc;strokeColor=light-dark(#0dcea8, #6d5100);rounded=0;labelBorderColor=none;" parent="1" vertex="1">
          <mxGeometry x="2140" y="1885" width="250" height="50" as="geometry" />
        </mxCell>
        <mxCell id="ptdtlOR35usIGfbwmJ5l-38" value="&lt;div style=&quot;&quot;&gt;&lt;pre style=&quot;font-family: Monaco, monospace; font-size: 9pt;&quot;&gt;&lt;span style=&quot;color: rgb(57, 0, 160);&quot;&gt;CityAnonymizationService&lt;/span&gt;&lt;/pre&gt;&lt;/div&gt;" style="whiteSpace=wrap;html=1;fontSize=24;fontFamily=Lucida Console;fillColor=#fff2cc;strokeColor=light-dark(#0dcea8, #6d5100);rounded=0;labelBorderColor=none;" parent="1" vertex="1">
          <mxGeometry x="2140" y="2015" width="250" height="50" as="geometry" />
        </mxCell>
        <mxCell id="ptdtlOR35usIGfbwmJ5l-40" value="&lt;div style=&quot;&quot;&gt;&lt;pre style=&quot;font-family: Monaco, monospace; font-size: 9pt;&quot;&gt;&lt;span style=&quot;color: rgb(57, 0, 160);&quot;&gt;PostCodeAnonymizationService&lt;/span&gt;&lt;/pre&gt;&lt;/div&gt;" style="whiteSpace=wrap;html=1;fontSize=24;fontFamily=Lucida Console;fillColor=#fff2cc;strokeColor=light-dark(#0dcea8, #6d5100);rounded=0;labelBorderColor=none;" parent="1" vertex="1">
          <mxGeometry x="2620" y="2170" width="250" height="50" as="geometry" />
        </mxCell>
        <mxCell id="ptdtlOR35usIGfbwmJ5l-42" value="&lt;div style=&quot;&quot;&gt;&lt;pre style=&quot;font-family: Monaco, monospace; font-size: 9pt;&quot;&gt;&lt;span style=&quot;color: rgb(57, 0, 160);&quot;&gt;HouseNumberAnonymizationService&lt;/span&gt;&lt;/pre&gt;&lt;/div&gt;" style="whiteSpace=wrap;html=1;fontSize=24;fontFamily=Lucida Console;fillColor=#fff2cc;strokeColor=light-dark(#0dcea8, #6d5100);rounded=0;labelBorderColor=none;" parent="1" vertex="1">
          <mxGeometry x="2620" y="2340" width="250" height="50" as="geometry" />
        </mxCell>
      </root>
    </mxGraphModel>
  </diagram>
</mxfile>
